<?xml version="1.0" encoding="utf-8"?>
<!-- Generator: Adobe Illustrator 24.1.1, SVG Export Plug-In . SVG Version: 6.00 Build 0)  -->
<svg version="1.1" id="Layer_1" xmlns="http://www.w3.org/2000/svg" xmlns:xlink="http://www.w3.org/1999/xlink" x="0px" y="0px"
	 viewBox="0 0 2658.7 438.8" style="enable-background:new 0 0 2658.7 438.8;" xml:space="preserve">
<style type="text/css">
	.st0{fill:url(#SVGID_1_);}
	.st1{fill:url(#SVGID_2_);}
	.st2{fill:url(#SVGID_3_);}
	.st3{fill:url(#SVGID_4_);}
</style>
<path d="M0.1,260.2c0-14.9,1.6-29.4,3.1-44.3C7.6,172,15.6,128.8,35.1,88.7C55.6,46.2,84.9,13,133.3,2.3c5.5-1.3,11.2-1.8,16.8-2
	h336.5c0.6,0,1.1,0.5,1,1.1c-3,33.5-6,66.1-8.9,99.9c0,0.5-0.5,0.9-1,0.9h-8.6c-98.2,0-196.4,0.1-294.5-0.2
	c-13.3-0.1-22.5,5.4-27.4,16.7c-5.4,12.1-9.1,24.9-14,39.4c-0.2,0.7,0.3,1.4,1,1.4h339c0.6,0,1.1,0.5,1,1.1
	c-3,36.7-5.9,72.1-8.9,108.5c0,0.5-0.5,0.9-1,0.9h-333c-0.6,0-1,0.5-1,1c0.1,17.9,2,34.3,10.3,49.3c3.8,6.9,9.4,10.4,18.2,10.4
	c96.4-0.4,192.6-0.3,288.9-0.3h9.4c0.6,0,1.1,0.5,1,1.1c-3.3,35.2-6.5,69.7-9.8,105.4c-0.1,0.5-0.5,0.9-1,0.9h-21.7
	c-114.9,0.4-229.9,1-344.9,0.9c-19.3,0-34.1-11.2-45.6-26.1C18.4,391,10.8,365.5,6.7,339c-3-18.7-5.8-37.8-6.7-56.3
	C0,282.6,0.1,269.6,0.1,260.2z"/>
<path d="M1130.4,436.8c13-145.4,25.9-290.6,39-436.8c15.7,0,30.8,0,46,0c99,0.2,198,0.6,296.9,0.4c15.9,0,31.3,0.7,46.6,5.5
	c35.9,11.4,48.7,44.4,45.8,75.4c-2.6,27.3-5.9,54.6-8.4,81.9c-5.2,55.2-10.1,110.5-15.1,165.7c-3,32.7-6.2,65.3-8.7,98
	c-0.6,8.3-2.8,11.3-11.6,11.2c-37.3-0.4-74.7,0.1-112.1,0.2c-2.3,0-4.7-0.3-7.9-0.6c1.3-15,2.6-29.5,3.8-44
	c4.6-52.6,9.3-105.2,14-157.8c2.4-26.8,4.8-53.7,7.1-80.5c0.2-2.1,0.5-4.3,0.4-6.4c-0.3-21.5-7.8-30.9-30.1-30.5
	c-45.3,0.8-90.7,0.3-136.1,0.4c-2.9,0-5.7,0-9.2,0c-2.8,30.3-5.4,59.8-8.2,89.2c-5.2,55.5-10.5,111-15.7,166.5
	c-1.8,19.1-3.5,38.2-5,57.4c-0.3,4-1,6.5-5.9,6.4c-41.1-0.3-82.2-0.4-123.2-0.5C1132.3,437.9,1131.8,437.5,1130.4,436.8z"/>
<path d="M960,86.5c-4-32.3-18.4-59.5-48.9-75.2c-14.2-7.3-29.2-10.1-44.8-11h-359C494.6,147,482,292.5,469.4,437.7h130.8
	c4.2-46,8.2-90.5,12.3-135.8h10.1c68,0,136.1,0.4,204-0.2c44.9-0.4,80.5-19.7,103.5-58.7C958.5,194.6,966.9,141.6,960,86.5z
	 M806,185.1H623c2-23.2,3.8-45.4,5.9-67.6c1.4-15.4,1.5-15.4,17.2-15.3c55.2,0.1,110.4,0.2,165.6,0.2c14.7,0,27.5,3.3,34.6,18
	C860.6,150.5,839.1,185.1,806,185.1z"/>
<path d="M963.8,437.2c8.9-99.9,17.7-199.6,26.6-299.7c43.5,0,86.6,0,130.3,0c-1.2,15.3-2.3,30.4-3.6,45.4
	c-5.7,64-11.4,128-17.2,191.9c-1.7,18.9-3.5,37.7-5.2,56.5c-0.4,4-1,7.1-6.3,7c-40.3-0.3-80.5-0.3-120.8-0.4
	C966.6,438,965.6,437.6,963.8,437.2z"/>
<linearGradient id="SVGID_1_" gradientUnits="userSpaceOnUse" x1="993" y1="388.2898" x2="1131.4" y2="388.2898" gradientTransform="matrix(1 0 0 -1 0 439.8898)">
	<stop  offset="0" style="stop-color:#3FA2DF"/>
	<stop  offset="1" style="stop-color:#2483BE"/>
</linearGradient>
<polygon class="st0" points="1002,0 1131.4,0 1126.2,56.3 993,103.2 "/>
<linearGradient id="SVGID_2_" gradientUnits="userSpaceOnUse" x1="1622.0001" y1="276.2398" x2="1979.9203" y2="276.2398" gradientTransform="matrix(1 0 0 -1 0 439.8898)">
	<stop  offset="0" style="stop-color:#3FA2DF"/>
	<stop  offset="1" style="stop-color:#2483BE"/>
</linearGradient>
<path class="st1" d="M1656,0l227,0.8c71.5,3.8,103.5,41.4,95.8,112.6s-45.4,108.7-113.2,112.5l-134.9-0.5L1720,327.3l-98-0.1L1656,0
	z M1741.1,139h121.3c17.9,0.2,28.3-8.4,31.1-25.7c2.8-17.4-3.1-31-25.3-30.6l-121.3-0.4L1741.1,139z"/>
<linearGradient id="SVGID_3_" gradientUnits="userSpaceOnUse" x1="1972" y1="276.3898" x2="2316.0708" y2="276.3898" gradientTransform="matrix(1 0 0 -1 0 439.8898)">
	<stop  offset="0" style="stop-color:#3FA2DF"/>
	<stop  offset="1" style="stop-color:#2483BE"/>
</linearGradient>
<path class="st2" d="M1972,325.4l22.9-221.5c10.5-66.6,50.8-101.3,121-103.9l110.2,0.6c63.8,4.6,93.7,39.2,89.6,103.8L2292.6,327
	l-86.5-0.3l10.4-99l-144.6-1.2l-10.1,99.2L1972,325.4z M2084.6,111.3l-3.8,34.6l144.4,0.5l3.1-27.2c2.9-31.5,1.3-42.2-21.7-42.2
	l-87.4-0.1C2095.8,77.5,2086.7,89,2084.6,111.3z"/>
<linearGradient id="SVGID_4_" gradientUnits="userSpaceOnUse" x1="1610.7001" y1="220.8898" x2="2658.7" y2="220.8898" gradientTransform="matrix(1 0 0 -1 0 439.8898)">
	<stop  offset="0" style="stop-color:#3FA2DF"/>
	<stop  offset="1" style="stop-color:#2483BE"/>
</linearGradient>
<path class="st3" d="M2544.6,228.3l-127-0.5c-63.1,1.3-95.7-20.7-89.3-90.3L2339.9,0l85.7,0.1l-8.2,117.4
	c-2.2,18.4,4.7,28.5,20.6,30.3l118.4,0.4l13.1-147.6l89.2,0.3l-27,371.5c-3.5,41-27.5,65.6-71.9,65.6l-949.1-0.4l7.9-86.4l863.4,0.9
	c49.7,1.8,49.7-14.2,53.4-37.6L2544.6,228.3z"/>
</svg>
